<svg width="27" height="23" viewBox="0 0 27 23" fill="none" xmlns="http://www.w3.org/2000/svg">
<path fill-rule="evenodd" clip-rule="evenodd" d="M0.375 21.3438C0.375 21.0537 0.490234 20.7755 0.695352 20.5704C0.90047 20.3652 1.17867 20.25 1.46875 20.25H25.5312C25.8213 20.25 26.0995 20.3652 26.3046 20.5704C26.5098 20.7755 26.625 21.0537 26.625 21.3438C26.625 21.6338 26.5098 21.912 26.3046 22.1171C26.0995 22.3223 25.8213 22.4375 25.5312 22.4375H1.46875C1.17867 22.4375 0.90047 22.3223 0.695352 22.1171C0.490234 21.912 0.375 21.6338 0.375 21.3438ZM0.375 14.7812C0.375 14.4912 0.490234 14.213 0.695352 14.0079C0.90047 13.8027 1.17867 13.6875 1.46875 13.6875H25.5312C25.8213 13.6875 26.0995 13.8027 26.3046 14.0079C26.5098 14.213 26.625 14.4912 26.625 14.7812C26.625 15.0713 26.5098 15.3495 26.3046 15.5546C26.0995 15.7598 25.8213 15.875 25.5312 15.875H1.46875C1.17867 15.875 0.90047 15.7598 0.695352 15.5546C0.490234 15.3495 0.375 15.0713 0.375 14.7812ZM0.375 8.21875C0.375 7.92867 0.490234 7.65047 0.695352 7.44535C0.90047 7.24023 1.17867 7.125 1.46875 7.125H25.5312C25.8213 7.125 26.0995 7.24023 26.3046 7.44535C26.5098 7.65047 26.625 7.92867 26.625 8.21875C26.625 8.50883 26.5098 8.78703 26.3046 8.99215C26.0995 9.19727 25.8213 9.3125 25.5312 9.3125H1.46875C1.17867 9.3125 0.90047 9.19727 0.695352 8.99215C0.490234 8.78703 0.375 8.50883 0.375 8.21875ZM0.375 1.65625C0.375 1.36617 0.490234 1.08797 0.695352 0.882852C0.90047 0.677734 1.17867 0.5625 1.46875 0.5625H25.5312C25.8213 0.5625 26.0995 0.677734 26.3046 0.882852C26.5098 1.08797 26.625 1.36617 26.625 1.65625C26.625 1.94633 26.5098 2.22453 26.3046 2.42965C26.0995 2.63477 25.8213 2.75 25.5312 2.75H1.46875C1.17867 2.75 0.90047 2.63477 0.695352 2.42965C0.490234 2.22453 0.375 1.94633 0.375 1.65625Z" fill="white"/>
</svg>
